<?xml version="1.0" encoding="utf-8"?>
<!-- Generator: Adobe Illustrator 24.3.0, SVG Export Plug-In . SVG Version: 6.00 Build 0)  -->
<svg version="1.1" id="katman_1" xmlns="http://www.w3.org/2000/svg" xmlns:xlink="http://www.w3.org/1999/xlink" x="0px" y="0px"
	 viewBox="0 0 300 89" style="enable-background:new 0 0 300 89;" xml:space="preserve">
<style type="text/css">
	.st0{fill-rule:evenodd;clip-rule:evenodd;fill:#164194;}
</style>
<g>
	<path class="st0" d="M113.89,0.79c12.06,0,22.98,4.81,30.88,12.59c7.91,7.78,12.8,18.53,12.8,30.4c0,11.87-4.89,22.62-12.8,30.4
		c-7.9,7.78-18.82,12.59-30.88,12.59s-22.98-4.81-30.88-12.59c-7.91-7.78-12.8-18.53-12.8-30.4c0-11.87,4.89-22.62,12.8-30.4
		C90.91,5.6,101.83,0.79,113.89,0.79L113.89,0.79z M143.62,14.56c-7.6-7.48-18.12-12.11-29.73-12.11
		c-11.61,0-22.12,4.63-29.73,12.11c-7.6,7.48-12.3,17.81-12.3,29.23c0,11.41,4.7,21.75,12.3,29.23c7.6,7.48,18.11,12.11,29.72,12.11
		c11.61,0,22.12-4.63,29.72-12.11c7.6-7.48,12.3-17.81,12.3-29.23C155.92,32.37,151.22,22.04,143.62,14.56z"/>
	<rect x="71.69" y="35.29" class="st0" width="84.4" height="1.51"/>
	<path class="st0" d="M96.28,5.16c5.49,3.23,11.35,4.71,17.2,4.71c6.23,0,12.46-1.68,18.2-4.72L132.13,6
		c-5.88,3.11-12.26,4.84-18.65,4.84c-6.01,0-12.04-1.53-17.68-4.85L96.28,5.16z"/>
	<path class="st0" d="M100.14,8.07c-5.22,4.31-9.15,8.78-11.95,13.43c-2.8,4.64-4.48,9.45-5.23,14.46L82,35.82
		c0.77-5.14,2.49-10.07,5.36-14.82c2.86-4.74,6.85-9.29,12.17-13.67L100.14,8.07z"/>
	<path class="st0" d="M104.26,9.62c-4.4,6.06-7.08,10.68-8.77,14.77c-1.69,4.08-2.42,7.63-2.93,11.56l-0.95-0.12
		c0.52-4.01,1.26-7.64,2.99-11.81c1.72-4.16,4.43-8.84,8.88-14.96L104.26,9.62z"/>
	<path class="st0" d="M109.99,10.39c-4.99,12.79-5.48,17.56-6.02,22.95c-0.09,0.87-0.18,1.76-0.28,2.61l-0.96-0.11
		c0.11-0.95,0.2-1.78,0.28-2.6c0.55-5.47,1.04-10.3,6.08-23.2L109.99,10.39z"/>
	<rect x="113.21" y="10.21" class="st0" width="0.96" height="26.12"/>
	<path class="st0" d="M127.97,7.33c5.32,4.39,9.31,8.94,12.17,13.67c2.86,4.75,4.59,9.68,5.36,14.82l-0.95,0.14
		c-0.75-5.01-2.43-9.83-5.23-14.46c-2.8-4.65-6.73-9.12-11.95-13.43L127.97,7.33z"/>
	<path class="st0" d="M123.47,8.73c4.45,6.12,7.29,10.88,9.15,15.12c1.87,4.25,2.75,7.97,3.27,11.98l-0.95,0.12
		c-0.51-3.93-1.37-7.56-3.2-11.72c-1.83-4.17-4.64-8.88-9.05-14.94L123.47,8.73z"/>
	<path class="st0" d="M118.4,10.04c5.04,12.91,5.53,17.74,6.08,23.2c0.08,0.81,0.17,1.64,0.28,2.6l-0.96,0.11
		c-0.1-0.85-0.19-1.74-0.28-2.61c-0.55-5.39-1.03-10.16-6.02-22.95L118.4,10.04z"/>
	<path class="st0" d="M84.95,12.72c9.95,4.21,19.78,6.1,29.5,5.97c9.72-0.13,19.33-2.29,28.86-6.19l0.36,0.89
		c-9.63,3.95-19.37,6.13-29.21,6.27c-9.85,0.13-19.8-1.79-29.88-6.05L84.95,12.72z"/>
	<path class="st0" d="M77.62,21.34c12.34,4.52,24.56,6.7,36.64,6.69c12.08,0,24.03-2.19,35.84-6.37l0.32,0.91
		c-11.91,4.22-23.97,6.41-36.16,6.42c-12.19,0-24.52-2.19-36.97-6.75L77.62,21.34z"/>
	<rect x="71.69" y="51.83" class="st0" width="84.4" height="1.51"/>
	<path class="st0" d="M95.8,82.01c5.64-3.25,11.67-4.75,17.68-4.75c6.39,0,12.76,1.69,18.64,4.74l-0.44,0.85
		c-5.74-2.98-11.97-4.63-18.2-4.63c-5.85,0-11.71,1.45-17.2,4.62L95.8,82.01z"/>
	<path class="st0" d="M99.53,80.72c-5.32-4.3-9.26-8.76-12.06-13.4c-2.81-4.65-4.47-9.48-5.24-14.52l0.95-0.14
		c0.75,4.91,2.38,9.62,5.12,14.16c2.75,4.55,6.61,8.92,11.83,13.14L99.53,80.72z"/>
	<path class="st0" d="M104.06,79.14c-4.45-5.99-7.3-10.6-9.17-14.7c-1.88-4.12-2.77-7.71-3.29-11.64l0.95-0.12
		c0.51,3.85,1.38,7.35,3.21,11.37c1.84,4.03,4.66,8.59,9.07,14.53L104.06,79.14z"/>
	<path class="st0" d="M109.1,78.06c-5.04-12.64-5.53-17.37-6.09-22.73c-0.08-0.8-0.17-1.61-0.28-2.54l0.96-0.11
		c0.1,0.84,0.19,1.71,0.28,2.56c0.55,5.28,1.03,9.95,6.02,22.47L109.1,78.06z"/>
	<rect x="113.21" y="52.31" class="st0" width="0.96" height="25.58"/>
	<path class="st0" d="M127.36,79.97c5.23-4.22,9.15-8.6,11.95-13.15c2.79-4.53,4.48-9.25,5.23-14.16l0.95,0.14
		c-0.77,5.03-2.5,9.87-5.36,14.52c-2.86,4.64-6.85,9.1-12.17,13.39L127.36,79.97z"/>
	<path class="st0" d="M122.69,78.77c4.41-5.94,7.22-10.54,9.05-14.63c1.82-4.07,2.68-7.63,3.19-11.47l0.95,0.12
		c-0.52,3.93-1.4,7.57-3.27,11.74c-1.86,4.15-4.71,8.81-9.16,14.81L122.69,78.77z"/>
	<path class="st0" d="M117.5,77.7c4.99-12.52,5.47-17.19,6.02-22.47c0.09-0.85,0.18-1.72,0.28-2.56l0.96,0.11
		c-0.11,0.93-0.2,1.74-0.28,2.54c-0.55,5.35-1.04,10.08-6.09,22.73L117.5,77.7z"/>
	<path class="st0" d="M84.57,74.53c10.08-4.63,20.04-6.71,29.89-6.57c9.85,0.14,19.59,2.52,29.23,6.8l-0.39,0.88
		c-9.52-4.23-19.13-6.58-28.84-6.72c-9.71-0.14-19.54,1.92-29.48,6.48L84.57,74.53z"/>
	<path class="st0" d="M77.27,65.63c12.46-5.3,24.8-7.73,37-7.6c12.2,0.12,24.26,2.79,36.18,7.68l-0.36,0.89
		c-11.8-4.85-23.75-7.49-35.82-7.61c-12.07-0.12-24.28,2.28-36.61,7.53L77.27,65.63z"/>
	<path class="st0" d="M87.3,48.16h-4.45l-0.64,1.78H78.2l4.78-10.78h4.3l4.76,10.78h-4.11L87.3,48.16L87.3,48.16z M86.47,45.83
		l-1.39-3.88l-1.39,3.88H86.47L86.47,45.83z M100.95,39.16h3.92v6.42c0,0.64-0.12,1.24-0.35,1.8c-0.23,0.57-0.6,1.06-1.1,1.49
		c-0.5,0.42-1.02,0.72-1.57,0.89c-0.76,0.24-1.68,0.36-2.75,0.36c-0.62,0-1.29-0.04-2.02-0.11c-0.73-0.07-1.34-0.22-1.83-0.44
		c-0.49-0.22-0.94-0.53-1.35-0.93c-0.41-0.4-0.69-0.82-0.84-1.24c-0.24-0.69-0.36-1.29-0.36-1.82v-6.42h3.92v6.58
		c0,0.59,0.19,1.05,0.57,1.38c0.38,0.33,0.92,0.5,1.6,0.5c0.67,0,1.2-0.16,1.59-0.49c0.38-0.32,0.57-0.79,0.57-1.38V39.16
		L100.95,39.16z M107.5,39.16h3.66l4.77,5.95v-5.95h3.71v10.78h-3.71l-4.74-5.92v5.92h-3.69V39.16L107.5,39.16z M122.3,39.16h5.84
		c1.15,0,2.08,0.13,2.79,0.4c0.71,0.27,1.29,0.65,1.76,1.14c0.46,0.5,0.79,1.07,1,1.73c0.21,0.66,0.31,1.35,0.31,2.09
		c0,1.15-0.15,2.05-0.46,2.68c-0.31,0.64-0.74,1.17-1.29,1.6c-0.55,0.43-1.14,0.72-1.77,0.86c-0.86,0.2-1.64,0.29-2.34,0.29h-5.84
		V39.16L122.3,39.16z M126.22,41.6v5.89h0.96c0.82,0,1.41-0.08,1.76-0.23c0.35-0.16,0.62-0.42,0.82-0.81c0.2-0.39,0.3-1.01,0.3-1.87
		c0-1.14-0.22-1.92-0.66-2.34c-0.44-0.42-1.17-0.63-2.19-0.63H126.22L126.22,41.6z M136.05,39.16h10.51v2.3h-6.57v1.72h6.09v2.2
		h-6.09v2.12h6.76v2.44h-10.7V39.16z"/>
	<path class="st0" d="M165.23,50.24v-8.67h-3.21V39.3h10.65v2.26h-3.21v8.67H165.23L165.23,50.24z M174.14,50.24V39.3h9.18v2.26
		h-5.04v1.93h4.17v2.26h-4.17v2.22h5.39v2.26H174.14L174.14,50.24z M185.57,50.24V39.3h4.17v2.64c0,0.07,0,0.16,0,0.3
		c0,0.13,0,0.23,0,0.3c0,0.1,0,0.2,0,0.29c-0.03,0.14-0.04,0.24-0.05,0.31h0.22l2.75-3.84h4.2l-3.87,5l4.25,5.94h-4.51l-2.83-4.51
		h-0.22l0.05,0.73v0.48v3.3H185.57L185.57,50.24z M198.43,50.24V39.3h3.98l1.98,3.44l0.38,0.77l0.44,0.96h0.2l-0.1-0.9v-1.05V39.3
		h3.67v10.94H205l-1.95-4.1l-0.39-0.88l-0.45-1.15H202l0.1,1.17l0.03,1.13v3.83H198.43L198.43,50.24z M211.61,50.24V39.3h4.28v10.94
		H211.61L211.61,50.24z M212.45,38.01v-1.79h2.66v1.79H212.45L212.45,38.01z M218.64,50.24V39.3h4.17v2.64c0,0.07,0,0.16,0,0.3
		c0,0.13,0,0.23,0,0.3c0,0.1,0,0.2,0,0.29c-0.03,0.14-0.04,0.24-0.05,0.31h0.22l2.75-3.84h4.2l-3.87,5l4.25,5.94h-4.51l-2.83-4.51
		h-0.22l0.05,0.73v0.48v3.3H218.64z"/>
</g>
</svg>
